<?xml version="1.0" encoding="UTF-8" standalone="no" ?>
<!-- Created with Inkscape (http://www.inkscape.org/) -->
<svg
  xmlns:svg="http://www.w3.org/2000/svg"
  xmlns="http://www.w3.org/2000/svg"
  xmlns:xlink="http://www.w3.org/1999/xlink"
  version="1.0"
  width="850"
  height="700"
  id="svg2"
>
  <defs id="defs5">
    <linearGradient id="linearGradient5237">
      <stop
        id="stop5239"
        style="stop-color:#cecece;stop-opacity:1"
        offset="0"
      />
      <stop
        id="stop5247"
        style="stop-color:#b7dcef;stop-opacity:1"
        offset="0.25"
      />
      <stop
        id="stop5243"
        style="stop-color:#c9eff2;stop-opacity:1"
        offset="0.5"
      />
      <stop
        id="stop5245"
        style="stop-color:#b3daee;stop-opacity:1"
        offset="0.75"
      />
      <stop
        id="stop5241"
        style="stop-color:#c7c7c7;stop-opacity:1"
        offset="1"
      />
    </linearGradient>
    <linearGradient id="linearGradient3246">
      <stop
        id="stop3248"
        style="stop-color:#f4f4f4;stop-opacity:1"
        offset="0"
      />
      <stop
        id="stop3250"
        style="stop-color:#c7c7c7;stop-opacity:1"
        offset="1"
      />
    </linearGradient>
    <linearGradient
      x1="470.125"
      y1="132.8125"
      x2="42.625"
      y2="132.8125"
      id="linearGradient5412"
      xlink:href="#linearGradient3246"
      gradientUnits="userSpaceOnUse"
      gradientTransform="matrix(0.7687956,0,0,0.7687956,10.696443,79.296571)"
      spreadMethod="reflect"
    />
    <linearGradient
      x1="471.9541"
      y1="133.0573"
      x2="418.37372"
      y2="133.0573"
      id="linearGradient5415"
      xlink:href="#linearGradient3246"
      gradientUnits="userSpaceOnUse"
      gradientTransform="matrix(0.7687956,0,0,0.7687956,10.696443,79.296571)"
      spreadMethod="reflect"
    />
    <linearGradient
      x1="514.13843"
      y1="66.2827"
      x2="423.79068"
      y2="198.84227"
      id="linearGradient5435"
      xlink:href="#linearGradient5237"
      gradientUnits="userSpaceOnUse"
      gradientTransform="matrix(0.7687956,0,0,0.7687956,10.696443,79.296571)"
      spreadMethod="pad"
    />
  </defs>
  <path
    d="M 372.12647,130.99807 C 190.91827,130.99807 43.850754,153.49304 43.850754,181.21003 C 43.850754,208.92703 190.91827,231.42199 372.12647,231.42199 C 553.33467,231.42199 700.4022,208.92703 700.4022,181.21003 C 700.4022,153.49304 553.33467,130.99807 372.12647,130.99807 z"
    id="path5261"
    style="fill:url(#linearGradient5435);fill-opacity:1;fill-rule:nonzero;stroke:#000000;stroke-width:1;stroke-linecap:butt;stroke-linejoin:round;marker:none;marker-start:none;marker-mid:none;marker-end:none;stroke-miterlimit:4;stroke-dasharray:none;stroke-dashoffset:0;stroke-opacity:1;visibility:visible;display:inline;overflow:visible;enable-background:accumulate"
  />
  <path
    d="M 371.45717,165.34229 C 319.80515,165.34229 277.89664,172.06023 277.89664,180.35473 C 277.89662,188.64922 319.80515,195.36718 371.45717,195.36718 C 423.10919,195.36718 465.01771,188.64922 465.01771,180.35473 C 465.01769,172.06023 423.10919,165.34229 371.45717,165.34229 z"
    id="path5273"
    style="fill:#ffffff;fill-opacity:1;fill-rule:nonzero;stroke:#000000;stroke-width:1;stroke-linecap:butt;stroke-linejoin:miter;marker:none;marker-start:none;marker-mid:none;marker-end:none;stroke-miterlimit:4;stroke-dasharray:none;stroke-dashoffset:0;stroke-opacity:1;visibility:visible;display:inline;overflow:visible;enable-background:accumulate"
  />
  <path
    d="M 372.10787,167.89858 C 323.23158,167.89858 283.56697,173.84434 283.56697,181.19134 C 283.56697,188.53832 323.23158,194.53057 372.10787,194.53057 C 420.98415,194.53057 460.64876,188.53832 460.64876,181.19134 C 460.64878,173.84434 420.98415,167.89858 372.10787,167.89858 z M 368.43609,175.98578 C 369.64927,175.96789 370.86233,175.98578 372.10787,175.98578 C 382.07222,175.98578 391.08977,176.57159 397.62438,177.51956 C 397.63187,177.52065 397.66334,177.51846 397.67086,177.51956 C 398.47868,177.63697 399.21975,177.76335 399.94829,177.89139 C 399.95571,177.8927 399.98736,177.89009 399.99476,177.89139 C 403.29419,178.47257 405.72646,179.13894 407.05944,179.88995 C 407.06505,179.89307 407.10036,179.88681 407.10592,179.88995 C 407.39398,180.05373 407.62438,180.23167 407.80309,180.40121 C 407.89987,180.49164 407.97107,180.58821 408.03548,180.68008 C 408.15881,180.85607 408.2214,181.01065 408.2214,181.19134 C 408.22141,181.37203 408.15881,181.5731 408.03548,181.74908 C 407.97107,181.84096 407.89989,181.89104 407.80309,181.98147 C 405.15369,184.49457 390.16825,186.44337 372.10787,186.44337 C 369.61677,186.44337 367.20678,186.42021 364.85727,186.35041 C 363.68246,186.31551 362.50181,186.26202 361.37141,186.21098 C 355.70878,185.9553 350.67979,185.50384 346.59136,184.90959 C 345.78256,184.79229 344.99703,184.6657 344.26745,184.53777 C 343.53131,184.40841 342.82514,184.25879 342.17593,184.11946 C 339.89023,183.62879 338.19354,183.08244 337.15629,182.49273 C 337.00776,182.40907 336.9048,182.34556 336.78447,182.26034 C 336.66416,182.17513 336.55047,182.06812 336.45912,181.98147 C 336.36233,181.89104 336.29113,181.84096 336.22673,181.74908 C 336.10337,181.5731 335.99434,181.37203 335.99434,181.19134 C 335.99435,181.10098 336.05606,181.04817 336.08729,180.95895 C 336.1185,180.86972 336.16505,180.76808 336.22673,180.68008 C 336.29111,180.58821 336.36234,180.49164 336.45912,180.40121 C 336.5477,180.31843 336.66944,180.25026 336.78447,180.16882 C 336.89949,180.08734 337.01546,179.97001 337.15629,179.88995 C 337.30481,179.80629 337.49159,179.73954 337.66755,179.65756 C 339.07081,179.00352 341.33552,178.40782 344.26745,177.89139 C 345.73976,177.6327 347.36397,177.40773 349.14766,177.19422 C 353.60584,176.66039 358.98354,176.25325 364.85727,176.07874 C 366.03214,176.04383 367.22286,176.00366 368.43609,175.98578 z"
    id="path3270"
    style="fill:#e6e6e6;fill-opacity:1;fill-rule:nonzero;stroke:#000000;stroke-width:1;stroke-linecap:butt;stroke-linejoin:miter;marker:none;marker-start:none;marker-mid:none;marker-end:none;stroke-miterlimit:4;stroke-dasharray:none;stroke-dashoffset:0;stroke-opacity:1;visibility:visible;display:inline;overflow:visible;enable-background:accumulate"
  />
  <rect
    width="71.00901"
    height="61.239841"
    x="313.32208"
    y="380.15945"
    id="rect4678"
    style="fill:#ffffff;fill-opacity:1;fill-rule:nonzero;stroke:#000000;stroke-width:4;stroke-linecap:butt;stroke-linejoin:miter;marker:none;marker-start:none;marker-mid:none;marker-end:none;stroke-miterlimit:4;stroke-dasharray:none;stroke-dashoffset:0;stroke-opacity:1;visibility:visible;display:inline;overflow:visible;enable-background:accumulate"
  />
  <text
    x="349.31461"
    y="408.7041"
    id="text2475"
    xml:space="preserve"
    style="font-size:14px;font-style:normal;font-variant:normal;font-weight:normal;font-stretch:normal;text-align:center;line-height:100%;writing-mode:lr-tb;text-anchor:middle;fill:#000000;fill-opacity:1;font-family:Arial;-inkscape-font-specification:Arial"
  ><tspan
      x="349.31461"
      y="408.7041"
      id="tspan2477"
      style="font-size:14px"
    >AES-G</tspan></text>
  <rect
    width="183.74216"
    height="63.810036"
    x="568.95953"
    y="605.53711"
    id="rect5805"
    style="fill:#020064;fill-opacity:1;fill-rule:nonzero;marker:none;marker-start:none;marker-mid:none;marker-end:none;visibility:visible;display:inline;overflow:visible;enable-background:accumulate"
  />
  <text
    x="660.52655"
    y="645.6969"
    id="text2482"
    xml:space="preserve"
    style="font-size:24px;font-style:normal;font-variant:normal;font-weight:bold;font-stretch:normal;text-indent:0;text-align:center;text-decoration:none;line-height:100%;letter-spacing:normal;word-spacing:normal;text-transform:none;direction:ltr;block-progression:tb;writing-mode:lr-tb;text-anchor:middle;fill:#ffffff;fill-opacity:1;fill-rule:nonzero;marker:none;marker-start:none;marker-mid:none;marker-end:none;visibility:visible;display:inline;overflow:visible;enable-background:accumulate;font-family:Arial;-inkscape-font-specification:Arial Bold"
  ><tspan
      x="660.52655"
      y="645.6969"
      id="tspan2484"
      style="font-size:24px"
    >CONTENT</tspan></text>
  <rect
    width="145.30237"
    height="76.879562"
    x="18.384399"
    y="484.45178"
    id="rect4633"
    style="fill:#ffffff;fill-opacity:1;fill-rule:nonzero;stroke:#000000;stroke-width:4;stroke-linecap:butt;stroke-linejoin:miter;marker:none;marker-start:none;marker-mid:none;marker-end:none;stroke-miterlimit:4;stroke-dasharray:none;stroke-dashoffset:0;stroke-opacity:1;visibility:visible;display:inline;overflow:visible;enable-background:accumulate"
  />
  <text
    x="99.264099"
    y="519.1828"
    id="text6074"
    xml:space="preserve"
    style="font-size:14px;font-style:normal;font-variant:normal;font-weight:normal;font-stretch:normal;text-align:center;line-height:100%;writing-mode:lr-tb;text-anchor:middle;fill:#000000;fill-opacity:1;fill-rule:nonzero;marker:none;marker-start:none;marker-mid:none;marker-end:none;visibility:visible;display:inline;overflow:visible;enable-background:accumulate;font-family:Arial;-inkscape-font-specification:Arial"
  ><tspan
      x="101.39629"
      y="519.1828"
      id="tspan6076"
      style="font-size:14px"
    ><tspan
        x="99.264099"
        y="519.1828"
        id="tspan6078"
        style="font-size:14px;marker:none;marker-start:none;marker-mid:none;marker-end:none"
      >Device key(s), </tspan></tspan><tspan
      x="90.690224"
      y="534.55865"
      id="tspan6080"
      style="font-size:14px"
    ><tspan
        x="90.690224"
        y="534.55865"
        id="tspan6082"
        style="font-size:14px;marker:none;marker-start:none;marker-mid:none;marker-end:none"
      >Sequency key(s)</tspan></tspan></text>
  <rect
    width="144.44853"
    height="82.53981"
    x="17.219891"
    y="342.69055"
    id="rect4612"
    style="fill:#ffffff;fill-opacity:1;fill-rule:nonzero;stroke:#000000;stroke-width:4;stroke-linecap:butt;stroke-linejoin:miter;marker:none;marker-start:none;marker-mid:none;marker-end:none;stroke-miterlimit:4;stroke-dasharray:none;stroke-dashoffset:0;stroke-opacity:1;visibility:visible;display:inline;overflow:visible;enable-background:accumulate"
  />
  <rect
    width="189.72202"
    height="63.810032"
    x="334.52994"
    y="509.82205"
    id="rect4725"
    style="fill:#ffffff;fill-opacity:1;fill-rule:nonzero;stroke:#000000;stroke-width:4;stroke-linecap:butt;stroke-linejoin:miter;marker:none;marker-start:none;marker-mid:none;marker-end:none;stroke-miterlimit:4;stroke-dasharray:none;stroke-dashoffset:0;stroke-opacity:1;visibility:visible;display:inline;overflow:visible;enable-background:accumulate"
  />
  <rect
    width="189.36488"
    height="63.810036"
    x="643.41522"
    y="509.82205"
    id="rect4731"
    style="fill:#ffffff;fill-opacity:1;fill-rule:nonzero;stroke:#000000;stroke-width:4;stroke-linecap:butt;stroke-linejoin:miter;marker:none;marker-start:none;marker-mid:none;marker-end:none;stroke-miterlimit:4;stroke-dasharray:none;stroke-dashoffset:0;stroke-opacity:1;visibility:visible;display:inline;overflow:visible;enable-background:accumulate"
  />
  <path
    d="M 337.62107,179.65756 C 337.45799,179.73552 337.29363,179.81259 337.15629,179.88995 C 337.01546,179.97001 336.89949,180.08734 336.78447,180.16882 C 336.66944,180.25026 336.5477,180.31843 336.45912,180.40121 C 336.36234,180.49164 336.29111,180.58821 336.22673,180.68008 C 336.16505,180.76808 336.1185,180.86972 336.08729,180.95895 C 336.05606,181.04817 335.99435,181.10098 335.99434,181.19134 C 335.99434,181.37203 336.10337,181.5731 336.22673,181.74908 C 336.29113,181.84096 336.36233,181.89104 336.45912,181.98147 C 336.55047,182.06812 336.66416,182.17513 336.78447,182.26034 C 336.9048,182.34556 337.00776,182.40907 337.15629,182.49273 C 338.19354,183.08244 339.89023,183.62879 342.17593,184.11946 C 342.82514,184.25879 343.53131,184.40841 344.26745,184.53777 C 344.99703,184.6657 345.78256,184.79229 346.59136,184.90959 C 350.67979,185.50384 355.70878,185.9553 361.37141,186.21098 C 362.50181,186.26202 363.68246,186.31551 364.85727,186.35041 C 367.20678,186.42021 369.61677,186.44337 372.10787,186.44337 C 390.16825,186.44337 405.15369,184.49457 407.80309,181.98147 C 407.89989,181.89104 407.97107,181.84096 408.03548,181.74908 C 408.15881,181.5731 408.22141,181.37203 408.2214,181.19134 C 408.2214,181.01065 408.15881,180.85607 408.03548,180.68008 C 407.97107,180.58821 407.89987,180.49164 407.80309,180.40121 C 407.62438,180.23167 407.39398,180.05373 407.10592,179.88995 C 407.10036,179.88681 407.06505,179.89307 407.05944,179.88995 C 406.92811,179.81596 406.74751,179.77715 406.59466,179.70404 C 402.00976,181.83317 388.28426,183.37581 372.10787,183.37581 C 369.61677,183.37581 367.20678,183.35267 364.85727,183.28285 C 363.68246,183.24796 362.50181,183.19446 361.37141,183.14342 C 355.70878,182.88774 350.67979,182.4363 346.59136,181.84203 C 345.78256,181.72473 344.99703,181.59816 344.26745,181.47021 C 343.53131,181.34086 342.82513,181.19126 342.17593,181.0519 C 340.22935,180.63405 338.79618,180.19656 337.66755,179.70404 L 337.62107,179.65756 z"
    id="path3169"
    style="fill:url(#linearGradient5415);fill-opacity:1;fill-rule:nonzero;stroke:#000000;stroke-width:1;stroke-linecap:butt;stroke-linejoin:miter;marker:none;marker-start:none;marker-mid:none;marker-end:none;stroke-miterlimit:4;stroke-dasharray:none;stroke-dashoffset:0;stroke-opacity:1;visibility:visible;display:inline;overflow:visible;enable-background:accumulate"
  />
  <path
    d="M 372.10787,126.39359 C 190.89967,126.39358 43.832628,148.87301 43.832628,176.59 L 43.832628,181.00543 C 44.503066,153.37573 191.31401,130.99493 372.10787,130.99493 C 552.26541,130.99493 698.64485,153.23105 700.33663,180.72656 L 700.38311,180.72656 L 700.38311,176.59 C 700.38309,148.873 553.31607,126.39359 372.10787,126.39359 z"
    id="path3156"
    style="fill:url(#linearGradient5412);fill-opacity:1;fill-rule:nonzero;stroke:#000000;stroke-width:1;stroke-linecap:butt;stroke-linejoin:miter;marker:none;marker-start:none;marker-mid:none;marker-end:none;stroke-miterlimit:4;stroke-dasharray:none;stroke-dashoffset:0;stroke-opacity:1;visibility:visible;display:inline;overflow:visible;enable-background:accumulate"
  />
  <text
    x="371.81415"
    y="112.68706"
    id="text3242"
    xml:space="preserve"
    style="font-size:24px;font-style:normal;font-variant:normal;font-weight:normal;font-stretch:normal;text-align:center;line-height:100%;writing-mode:lr-tb;text-anchor:middle;fill:#000000;fill-opacity:1;font-family:Arial;-inkscape-font-specification:Arial"
  ><tspan
      x="371.81415"
      y="112.68706"
      id="tspan3244"
      style="font-size:24px"
    >Recorded media with AACS</tspan></text>
  <path
    d="M 486.04718,199.30473 C 481.80342,199.30473 478.35923,202.74893 478.35922,206.99268 C 478.35922,210.56933 480.81548,213.58285 484.12518,214.44039 L 484.12518,499.44733 L 478.35922,493.68137 L 484.12518,513.86225 L 484.12518,516.74524 L 484.94204,516.74524 L 486.04718,520.58921 L 487.15232,516.74524 L 487.96916,516.74524 L 487.96916,513.86225 L 493.73513,493.68137 L 487.96916,499.44733 L 487.96916,214.44039 C 491.27889,213.58285 493.73514,210.56933 493.73513,206.99268 C 493.73513,202.74893 490.29094,199.30473 486.04718,199.30473 z"
    id="path4719"
    style="fill:#000000;fill-opacity:1;fill-rule:nonzero;marker:none;visibility:visible;display:inline;overflow:visible;enable-background:accumulate"
  />
  <path
    d="M 94.417895,170.66709 C 90.174143,170.66709 86.729939,174.11129 86.729939,178.35504 C 86.729939,181.93572 89.180537,184.94909 92.495906,185.80276 L 92.495906,328.75069 L 86.729939,322.98472 L 92.495906,343.1656 L 92.495906,346.04858 L 93.312751,346.04858 L 94.417895,349.89257 L 95.523039,346.04858 L 96.339884,346.04858 L 96.339884,343.1656 L 102.10585,322.98472 L 96.339884,328.75069 L 96.339884,185.80276 C 99.649603,184.94523 102.10585,181.9317 102.10585,178.35504 C 102.10585,174.11129 98.661647,170.66709 94.417895,170.66709 z"
    id="path3294"
    style="fill:#000000;fill-opacity:1;fill-rule:nonzero;marker:none;visibility:visible;display:inline;overflow:visible;enable-background:accumulate"
  />
  <text
    x="182.48055"
    y="264.25922"
    id="text4597"
    xml:space="preserve"
    style="font-size:14px;font-style:normal;font-variant:normal;font-weight:normal;font-stretch:normal;text-align:center;line-height:100%;writing-mode:lr-tb;text-anchor:middle;fill:#000000;fill-opacity:1;font-family:Arial;-inkscape-font-specification:Arial"
  ><tspan
      x="182.48055"
      y="264.25922"
      id="tspan4599"
      style="font-size:14px"
    >Media key block (MKB)</tspan></text>
  <path
    d="M 352.66114,208.00172 C 348.41739,208.00172 344.97317,211.44593 344.97319,215.68969 C 344.97319,219.26634 347.42942,222.27985 350.73914,223.13739 L 350.73914,366.08532 L 344.97319,360.31935 L 350.73914,380.50024 L 350.73914,383.38323 L 351.556,383.38323 L 352.66114,387.2272 L 353.76628,383.38323 L 354.58313,383.38323 L 354.58313,380.50024 L 360.3491,360.31935 L 354.58313,366.08532 L 354.58313,223.13739 C 357.89285,222.27986 360.34909,219.26634 360.3491,215.68969 C 360.3491,211.44593 356.90488,208.00172 352.66114,208.00172 z"
    id="path4606"
    style="fill:#000000;fill-opacity:1;fill-rule:nonzero;marker:none;visibility:visible;display:inline;overflow:visible;enable-background:accumulate"
  />
  <path
    d="M 147.1765,403.73229 C 142.93273,403.73229 139.48853,407.17649 139.48853,411.42024 C 139.48853,415.66398 142.93273,419.1082 147.1765,419.1082 C 150.75314,419.1082 153.76667,416.65194 154.6242,413.34223 L 301.68038,413.34223 L 295.91441,419.1082 L 316.09531,413.34223 L 318.97827,413.34223 L 318.97827,412.52538 L 322.82226,411.42024 L 318.97827,410.3151 L 318.97827,409.49824 L 316.09531,409.49824 L 295.91441,403.73229 L 301.68038,409.49824 L 154.6242,409.49824 C 153.77053,406.18289 150.75716,403.73229 147.1765,403.73229 z"
    id="path4608"
    style="fill:#000000;fill-opacity:1;fill-rule:nonzero;marker:none;visibility:visible;display:inline;overflow:visible;enable-background:accumulate"
  />
  <path
    d="M 32.409724,414.95189 L 31.304581,418.79587 L 30.487736,418.79587 L 30.487736,421.67885 L 24.721768,441.85974 L 30.487736,436.09378 L 30.487736,493.17685 C 27.179392,494.03532 24.721768,497.02487 24.721768,500.60052 C 24.721768,504.84428 28.165971,508.2885 32.409724,508.28849 C 36.653476,508.28849 40.097679,504.8443 40.09768,500.60052 C 40.09768,497.01889 37.648458,494.00555 34.331713,493.15282 L 34.331713,436.09378 L 40.09768,441.85974 L 34.331713,421.67885 L 34.331713,418.79587 L 33.514868,418.79587 L 32.409724,414.95189 z"
    id="path4610"
    style="fill:#000000;fill-opacity:1;fill-rule:nonzero;marker:none;visibility:visible;display:inline;overflow:visible;enable-background:accumulate"
  />
  <text
    x="230.81796"
    y="403.42584"
    id="text4656"
    xml:space="preserve"
    style="font-size:14px;font-style:normal;font-variant:normal;font-weight:normal;font-stretch:normal;text-align:center;line-height:100%;writing-mode:lr-tb;text-anchor:middle;fill:#000000;fill-opacity:1;font-family:Arial;-inkscape-font-specification:Arial"
  ><tspan
      x="230.81796"
      y="403.42584"
      id="tspan4658"
      style="font-size:14px"
    >Processing key, K<tspan
        id="tspan4715"
        style="font-size:14px"
      >m</tspan></tspan></text>
  <path
    d="M 352.66114,418.65172 C 348.41739,418.65172 344.97317,422.09595 344.97319,426.33968 C 344.97319,429.91633 347.42942,432.92987 350.73914,433.78739 L 350.73914,499.44733 L 344.97319,493.68137 L 350.73914,513.86225 L 350.73914,516.74524 L 351.556,516.74524 L 352.66114,520.58921 L 353.76628,516.74524 L 354.58313,516.74524 L 354.58313,513.86225 L 360.3491,493.68137 L 354.58313,499.44733 L 354.58313,433.78739 C 357.89285,432.92985 360.34909,429.91634 360.3491,426.33968 C 360.3491,422.09592 356.90488,418.65175 352.66114,418.65172 z"
    id="path4701"
    style="fill:#000000;fill-opacity:1;fill-rule:nonzero;marker:none;visibility:visible;display:inline;overflow:visible;enable-background:accumulate"
  />
  <text
    x="259.03979"
    y="473.50763"
    id="text4703"
    xml:space="preserve"
    style="font-size:14px;font-style:normal;font-variant:normal;font-weight:normal;font-stretch:normal;text-align:center;line-height:100%;writing-mode:lr-tb;text-anchor:middle;fill:#000000;fill-opacity:1;font-family:Arial;-inkscape-font-specification:Arial"
  ><tspan
      x="259.03979"
      y="473.50763"
      id="tspan4705"
      style="font-size:14px"
    >Volume unique key, K<tspan
        id="tspan4717"
        style="font-size:14px"
      >vu</tspan></tspan></text>
  <text
    x="418.60446"
    y="549.98749"
    id="text4721"
    xml:space="preserve"
    style="font-size:24px;font-style:normal;font-variant:normal;font-weight:normal;font-stretch:normal;text-align:center;line-height:100%;writing-mode:lr-tb;text-anchor:middle;fill:#000000;fill-opacity:1;font-family:Arial;-inkscape-font-specification:Arial"
  ><tspan
      x="418.60446"
      y="549.98749"
      id="tspan4723"
      style="font-size:24px"
    >DECRYPTION</tspan></text>
  <text
    x="746.11133"
    y="549.98749"
    id="text4727"
    xml:space="preserve"
    style="font-size:24px;font-style:normal;font-variant:normal;font-weight:normal;font-stretch:normal;text-align:center;line-height:100%;writing-mode:lr-tb;text-anchor:middle;fill:#000000;fill-opacity:1;font-family:Arial;-inkscape-font-specification:Arial"
  ><tspan
      x="746.11133"
      y="549.98749"
      id="tspan4729"
      style="font-size:24px"
    >DECRYPTION</tspan></text>
  <path
    d="M 508.70263,534.04314 C 504.45887,534.04314 501.01465,537.48736 501.01466,541.73109 C 501.01466,545.97485 504.45885,549.41907 508.70263,549.41905 C 512.27829,549.41905 515.26781,546.96144 516.12631,543.65309 L 635.50584,543.65309 L 629.73987,549.41905 L 649.92077,543.65309 L 652.80375,543.65309 L 652.80375,542.83623 L 656.64772,541.73109 L 652.80375,540.62595 L 652.80375,539.80911 L 649.92077,539.80911 L 629.73987,534.04314 L 635.50584,539.80911 L 516.15033,539.80911 C 515.29762,536.49236 512.28426,534.04316 508.70263,534.04314 z"
    id="path4733"
    style="fill:#000000;fill-opacity:1;fill-rule:nonzero;marker:none;visibility:visible;display:inline;overflow:visible;enable-background:accumulate"
  />
  <text
    x="578.6825"
    y="529.81073"
    id="text4735"
    xml:space="preserve"
    style="font-size:14px;font-style:normal;font-variant:normal;font-weight:normal;font-stretch:normal;text-align:center;line-height:100%;writing-mode:lr-tb;text-anchor:middle;fill:#000000;fill-opacity:1;font-family:Arial;-inkscape-font-specification:Arial"
  ><tspan
      x="578.6825"
      y="529.81073"
      id="tspan4737"
      style="font-size:14px"
    >Title key, K<tspan
        id="tspan4739"
        style="font-size:14px"
      >t</tspan></tspan></text>
  <path
    d="M 660.82805,177.77844 C 656.58431,177.77844 653.1401,181.22266 653.1401,185.46641 C 653.1401,189.04305 655.59635,192.05658 658.90606,192.91411 L 658.90606,499.44733 L 653.1401,493.68137 L 658.90606,513.86225 L 658.90606,516.74524 L 659.72291,516.74524 L 660.82805,520.58921 L 661.93319,516.74524 L 662.75005,516.74524 L 662.75005,513.86225 L 668.51602,493.68137 L 662.75005,499.44733 L 662.75005,192.91411 C 666.0654,192.06044 668.51602,189.04707 668.51602,185.46641 C 668.51602,181.22266 665.0718,177.77844 660.82805,177.77844 z"
    id="path4741"
    style="fill:#000000;fill-opacity:1;fill-rule:nonzero;marker:none;visibility:visible;display:inline;overflow:visible;enable-background:accumulate"
  />
  <text
    x="563.0733"
    y="368.47012"
    id="text4743"
    xml:space="preserve"
    style="font-size:14px;font-style:normal;font-variant:normal;font-weight:normal;font-stretch:normal;text-indent:0;text-align:center;text-decoration:none;line-height:100%;letter-spacing:normal;word-spacing:normal;text-transform:none;direction:ltr;block-progression:tb;writing-mode:lr-tb;text-anchor:middle;fill:#000000;fill-opacity:1;fill-rule:nonzero;marker:none;marker-start:none;marker-mid:none;marker-end:none;visibility:visible;display:inline;overflow:visible;enable-background:accumulate;font-family:Arial;-inkscape-font-specification:Arial"
  ><tspan
      x="563.0733"
      y="368.47012"
      id="tspan4745"
      style="font-size:14px"
    >Encrypted title key(s)</tspan></text>
  <path
    d="M 485.59989,372.97648 L 641.19242,372.97648"
    id="path6012"
    style="fill:none;fill-opacity:1;fill-rule:nonzero;stroke:#000000;stroke-width:2;marker:none;marker-start:none;marker-mid:none;marker-end:none;stroke-miterlimit:4;stroke-dasharray:none;stroke-opacity:1;visibility:visible;display:inline;overflow:visible;enable-background:accumulate"
  />
  <text
    x="393.93582"
    y="306.561"
    id="text4660"
    xml:space="preserve"
    style="font-size:14px;font-style:normal;font-variant:normal;font-weight:normal;font-stretch:normal;text-indent:0;text-align:center;text-decoration:none;line-height:100%;letter-spacing:normal;word-spacing:normal;text-transform:none;direction:ltr;block-progression:tb;writing-mode:lr-tb;text-anchor:middle;fill:#000000;fill-opacity:1;fill-rule:nonzero;marker:none;marker-start:none;marker-mid:none;marker-end:none;visibility:visible;display:inline;overflow:visible;enable-background:accumulate;font-family:Arial;-inkscape-font-specification:Arial"
  ><tspan
      x="393.93582"
      y="306.561"
      id="tspan4662"
      style="font-size:14px"
    >Volume ID</tspan></text>
  <path
    d="M 352.04169,310.70405 L 435.07161,310.70405"
    id="path6010"
    style="fill-opacity:1;fill-rule:nonzero;marker:none;marker-start:none;marker-mid:none;marker-end:none;visibility:visible;display:inline;overflow:visible;enable-background:accumulate"
  />
  <path
    d="M 96.032757,270.72667 L 262.86139,270.72667"
    id="path6008"
    style="fill-opacity:1;fill-rule:nonzero;stroke:#000000;stroke-width:2;stroke-linecap:butt;stroke-linejoin:miter;marker:none;marker-start:none;marker-mid:none;marker-end:none;stroke-miterlimit:4;stroke-dasharray:none;stroke-dashoffset:0;stroke-opacity:1;visibility:visible;display:inline;overflow:visible;enable-background:accumulate"
  />
  <text
    x="729.82654"
    y="357.14777"
    id="text4751"
    xml:space="preserve"
    style="font-size:14px;font-style:normal;font-variant:normal;font-weight:normal;font-stretch:normal;text-align:center;line-height:100%;writing-mode:lr-tb;text-anchor:middle;fill:#000000;fill-opacity:1;font-family:Arial;-inkscape-font-specification:Arial"
  ><tspan
      x="729.82654"
      y="357.14777"
      id="tspan4753"
      style="font-size:14px"
    >Encrypted content</tspan></text>
  <path
    d="M 662.36162,361.17364 L 798.40265,361.17364"
    id="path4749"
    style="fill-opacity:1;fill-rule:nonzero;stroke:#000000;stroke-width:2;stroke-linecap:butt;stroke-linejoin:miter;marker:none;marker-start:none;marker-mid:none;marker-end:none;stroke-miterlimit:4;stroke-dasharray:none;stroke-dashoffset:0;stroke-opacity:1;visibility:visible;display:inline;overflow:visible;enable-background:accumulate"
  />
  <path
    d="M 660.82805,551.84556 C 656.58431,551.84556 653.1401,555.28977 653.1401,559.53352 C 653.1401,563.11017 655.59635,566.12371 658.90606,566.98122 L 658.90606,598.69404 L 653.1401,592.92807 L 658.90606,613.10896 L 658.90606,615.99195 L 659.72291,615.99195 L 660.82805,619.83592 L 661.93319,615.99195 L 662.75005,615.99195 L 662.75005,613.10896 L 668.51602,592.92807 L 662.75005,598.69404 L 662.75005,566.98122 C 666.0654,566.12756 668.51602,563.1142 668.51602,559.53352 C 668.51602,555.28976 665.0718,551.84557 660.82805,551.84556 z"
    id="path4758"
    style="fill:#000000;fill-opacity:1;fill-rule:nonzero;marker:none;visibility:visible;display:inline;overflow:visible;enable-background:accumulate"
  />
  <rect
    width="816.46094"
    height="50.740509"
    x="16.769537"
    y="30.652855"
    id="rect5895"
    style="fill:#020064;fill-opacity:1;fill-rule:nonzero;marker:none;marker-start:none;marker-mid:none;marker-end:none;visibility:visible;display:inline;overflow:visible;enable-background:accumulate"
  />
  <text
    x="425.86148"
    y="68.405304"
    id="text6049"
    xml:space="preserve"
    style="font-size:36px;font-style:normal;font-variant:normal;font-weight:normal;font-stretch:normal;text-align:center;line-height:100%;writing-mode:lr-tb;text-anchor:middle;fill:#ffffff;fill-opacity:1;font-family:Arial;-inkscape-font-specification:Arial"
  ><tspan
      x="425.86148"
      y="68.405304"
      id="tspan6051"
      style="font-size:36px"
    ><tspan
        x="425.86148"
        y="68.405304"
        id="tspan6053"
        style="font-size:36px;font-weight:bold;line-height:100%;font-family:Arial;-inkscape-font-specification:Arial Bold"
      >AACS</tspan></tspan></text>
  <text
    x="89.098801"
    y="380.25162"
    id="text6064"
    xml:space="preserve"
    style="font-size:14px;font-style:normal;font-variant:normal;font-weight:normal;font-stretch:normal;text-indent:0;text-align:center;text-decoration:none;line-height:100%;letter-spacing:normal;word-spacing:normal;text-transform:none;direction:ltr;block-progression:tb;writing-mode:lr-tb;text-anchor:middle;fill:#000000;fill-opacity:1;fill-rule:nonzero;marker:none;marker-start:none;marker-mid:none;marker-end:none;visibility:visible;display:inline;overflow:visible;enable-background:accumulate;font-family:Arial;-inkscape-font-specification:Arial"
  ><tspan
      x="91.231026"
      y="380.25162"
      id="tspan6066"
      style="font-size:14px;font-style:normal;font-variant:normal;font-weight:normal;font-stretch:normal;text-align:center;line-height:100%;writing-mode:lr-tb;text-anchor:middle;font-family:Arial;-inkscape-font-specification:Arial"
    ><tspan
        x="89.098801"
        y="380.25162"
        id="tspan6068"
        style="font-size:14px;font-style:normal;font-variant:normal;font-weight:normal;font-stretch:normal;text-align:center;line-height:100%;writing-mode:lr-tb;text-anchor:middle;marker:none;marker-start:none;marker-mid:none;marker-end:none;font-family:Arial;-inkscape-font-specification:Arial"
      >Subset / difference</tspan></tspan></text>
  <text
    x="89.098801"
    y="401.60086"
    id="text4112"
    xml:space="preserve"
    style="font-size:14px;font-style:normal;font-variant:normal;font-weight:normal;font-stretch:normal;text-indent:0;text-align:center;text-decoration:none;line-height:100%;letter-spacing:normal;word-spacing:normal;text-transform:none;direction:ltr;block-progression:tb;writing-mode:lr-tb;text-anchor:middle;fill:#000000;fill-opacity:1;fill-rule:nonzero;marker:none;marker-start:none;marker-mid:none;marker-end:none;visibility:visible;display:inline;overflow:visible;enable-background:accumulate;font-family:Arial;-inkscape-font-specification:Arial"
  ><tspan
      x="91.231026"
      y="401.60086"
      id="tspan4114"
      style="font-size:14px"
    ><tspan
        x="89.098801"
        y="401.60086"
        id="tspan4116"
        style="font-size:14px;marker:none;marker-start:none;marker-mid:none;marker-end:none"
      >tree system</tspan></tspan></text>
</svg>
